<svg width="309.03" height="246.55" xmlns="http://www.w3.org/2000/svg">
 <defs>
  <style>.cls-1{fill:#094d66;}.cls-2{fill:#00a099;}.cls-3{fill:#51bab4;}.cls-4{fill:#a2195b;}.cls-5{fill:#d60b51;}.cls-6{fill:#f29100;}.cls-7{fill:#f8b133;}</style>
 </defs>
 <g>
  <title>Layer 1</title>
  <path id="svg_8" d="m152.64,140.10999l-27.36,-15.8l-25.08,14.46l52.44,30.26a13.74,13.74 0 0 0 12.41,0l0,-29a13.77,13.77 0 0 1 -12.41,0.08z" class="cls-2"/>
  <path id="svg_9" d="m192.41,124.30999l-5.78,3.34l4.64,26.28l26.22,-15.16a13.76,13.76 0 0 0 6.2,-10.76l-25.08,-14.48a13.77,13.77 0 0 1 -6.2,10.78z" class="cls-3"/>
  <polygon id="svg_10" points="170.8300018310547,136.77999877929688 165.05999755859375,140.11000061035156 165.05999755859375,169.07000732421875 191.26998901367188,153.92999267578125 170.8300018310547,136.77999877929688 " class="cls-3"/>
  <path id="svg_11" d="m94,128.03999a13.79,13.79 0 0 0 6.2,10.76l25.08,-14.49a13.77,13.77 0 0 1 -6.2,-10.75l0,-31.58l-25.08,-14.48l0,60.54z" class="cls-4"/>
  <path id="svg_12" d="m100.2,56.76999a13.77,13.77 0 0 0 -6.2,10.75l25.08,14.48a13.77,13.77 0 0 1 6.2,-10.75l27.36,-15.8l0,-29l-52.44,30.32z" class="cls-5"/>
  <path id="svg_13" d="m165.05,26.46999a13.77,13.77 0 0 0 -12.41,0l0,29a13.8,13.8 0 0 1 12.41,0l27.36,15.8l25.08,-14.5l-52.44,-30.3z" class="cls-6"/>
  <path id="svg_14" d="m217.49,56.76999l-25.08,14.48a13.77,13.77 0 0 1 6.2,10.75l0,31.58l25.12,14.46l0,-60.54a13.75,13.75 0 0 0 -6.24,-10.73z" class="cls-7"/>
  <path id="svg_1" d="m32.12,189.18999a69.05,69.05 0 0 1 16.69,2l0,6.06c-0.07,0 -8.92,-0.83 -15.29,-0.83c-7.36,0 -10.11,2.37 -10.11,17.61c0,10.91 2,17.49 10.13,17.49c7,0 15.27,-0.52 15.27,-0.52l0,6.07a69.75,69.75 0 0 1 -16.69,1.7c-12.29,-0.07 -16.43,-9.85 -16.43,-24.86c0.04,-15.55 3.21,-24.72 16.43,-24.72z" class="cls-1"/>
  <path id="svg_2" d="m55.25,189.76999l7.71,0l0,21.5l19.08,0l0,-21.5l7.69,0l0,48.6l-7.71,0l0,-19.91l-19.06,0l0,19.91l-7.71,0l0,-48.6z" class="cls-1"/>
  <path id="svg_3" d="m112.56,189.76999l8.52,0l16.27,48.65l-8.43,0l-3.72,-11.79l-17.2,0l-3.83,11.79l-8.56,0l16.95,-48.65zm10.61,29.82l-6.34,-19.29l-6.64,19.29l12.98,0z" class="cls-1"/>
  <path id="svg_4" d="m134.64,189.76999l35.16,0l0,7.24l-13.93,0l0,41.36l-7.71,0l0,-41.41l-13.52,0l0,-7.19z" class="cls-1"/>
  <path id="svg_5" d="m175.81,189.76999l19.58,0c9.94,0 13.33,6.43 13.33,12.86c0,4.64 -1.72,9.44 -6.46,10.53c3.64,0.72 7.05,4.54 7.05,11.24c0,8.22 -3.56,14 -13.8,14l-19.7,0l0,-48.63zm19.23,19.8c3.94,0 6.06,-2.26 6.06,-6.45c0,-5.22 -3.3,-6.34 -6.06,-6.34l-11.47,0l0,12.79l11.47,0zm0.24,21.84c2.95,0 6.32,-1.17 6.32,-7.33c0,-4.06 -1.79,-7.73 -6.32,-7.73l-11.71,0l0,15.06l11.71,0z" class="cls-1"/>
  <path id="svg_6" d="m234.24,189.38999c11.5,0 19.23,2.19 19.23,25c0,21.47 -7.26,24.26 -19.23,24.26s-19.32,-2.13 -19.32,-24.26c0,-22.81 8.15,-25 19.32,-25zm0,42c8.74,0 11.52,-2.65 11.52,-17c0,-16.88 -3.53,-17.75 -11.52,-17.75c-7.79,0 -11.61,0.66 -11.61,17.75c0,14.65 2.51,17 11.61,17z" class="cls-1"/>
  <path id="svg_7" d="m264.95,189.76999l10.22,18l10.39,-18l8.5,0l-14.52,24.18l14.19,24.42l-8.5,0l-10.06,-17.86l-10,17.86l-8.5,0l14.06,-24.47l-14.28,-24.13l8.5,0z" class="cls-1"/>
 </g>
</svg>